# xmcd
#
# Track frame offsets:
#	150
#	25243
#	49378
#	76095
#	95380
#	124383
#	151995
#	194458
#	217328
#	249480
#
# Disc length: 3658 seconds
# Revision: 4
# Processed by: cddbd v1.5.2PL0 Copyright (c) Steve Scherf et al.
# Submitted via: dBpowerAMP V12.0
#
DISCID=8a0e480a
DTITLE=Various Artist - Jazz on CD 8 ~ Cafe Rouge Restaurant Bar [dBP-LITE02-1-FLAC@]
DYEAR=1994
DGENRE=Jazz
TTITLE0=Buddy Rich - Giant Steps
TTITLE1=Earl Hines - Earle's Pearl
TTITLE2=Charles Mingus - Sound of Love
TTITLE3=Dexter Gordon - Lullaby of Birdland
TTITLE4=Stand Getz - Heart Place
TTITLE5=Woody Herman - Mood Indigo
TTITLE6=McCoy Tyner - Hip Toe
TTITLE7=Stephane Grappelli - Don't Blame me
TTITLE8=Gerry Mulligan - Song for Johnny
TTITLE9=Teddy Wilson - Dizzy Spells
EXTD=
EXTT0=
EXTT1=
EXTT2=
EXTT3=
EXTT4=
EXTT5=
EXTT6=
EXTT7=
EXTT8=
EXTT9=
PLAYORDER=
